<?xml version="1.0" standalone="no"?>
<!DOCTYPE svg PUBLIC "-//W3C//DTD SVG 20010904//EN"
 "http://www.w3.org/TR/2001/REC-SVG-20010904/DTD/svg10.dtd">
<svg version="1.0" xmlns="http://www.w3.org/2000/svg"
 width="512.000000pt" height="512.000000pt" viewBox="0 0 512.000000 512.000000"
 preserveAspectRatio="xMidYMid meet">

<g transform="translate(0.000000,512.000000) scale(0.100000,-0.100000)"
fill="#000000" stroke="none">
<path d="M2350 3954 c-659 -59 -1175 -271 -1510 -620 -141 -147 -222 -282
-277 -463 -24 -78 -26 -102 -27 -266 -1 -198 9 -267 56 -405 165 -476 648
-833 1317 -974 226 -48 354 -60 651 -60 387 0 631 35 931 134 325 107 559 248
759 456 248 260 352 533 337 894 -11 279 -107 483 -336 710 -306 305 -747 499
-1301 575 -110 15 -505 27 -600 19z m436 -84 c345 -28 664 -108 931 -235 108
-51 251 -133 302 -173 l24 -19 -87 -31 c-155 -57 -270 -75 -441 -69 -174 5
-247 22 -425 97 -205 85 -287 104 -455 104 -169 0 -302 -40 -424 -128 -34 -24
-62 -35 -105 -40 -32 -3 -113 -20 -179 -38 -104 -27 -131 -30 -206 -25 -115 7
-407 82 -576 147 l-30 11 70 45 c91 60 284 153 410 199 349 129 793 186 1191
155z m74 -434 c52 -13 136 -42 186 -64 206 -91 341 -118 558 -109 158 6 272
30 423 91 l87 35 27 -20 c83 -59 243 -267 294 -383 23 -52 68 -197 62 -201 -1
-1 -69 -19 -152 -39 -179 -46 -392 -115 -569 -185 -110 -44 -131 -50 -146 -39
-10 7 -141 119 -292 249 -514 443 -565 479 -689 479 -58 0 -77 -5 -149 -41
-45 -23 -117 -69 -159 -104 -129 -105 -181 -135 -250 -145 -46 -6 -74 -5 -110
6 -86 25 -85 29 36 160 211 228 327 303 518 335 79 13 221 2 325 -25z m-1719
-57 c130 -48 330 -107 439 -129 139 -28 225 -26 361 9 62 17 115 29 116 27 2
-2 -46 -56 -107 -122 -99 -107 -110 -123 -110 -156 0 -74 86 -122 220 -123
106 0 153 21 290 130 52 41 131 94 175 116 71 36 86 40 135 37 106 -9 131 -26
642 -464 168 -145 316 -276 327 -290 25 -32 28 -90 5 -122 -22 -32 -67 -52
-118 -52 -51 0 -43 -6 -249 178 -131 117 -164 136 -175 104 -2 -7 66 -84 152
-171 142 -144 156 -161 156 -193 0 -45 -31 -85 -84 -109 -82 -37 -94 -31 -265
129 -61 56 -117 102 -126 102 -35 0 -9 -44 86 -150 55 -62 105 -123 110 -134
24 -53 -40 -116 -118 -116 -40 0 -49 6 -150 100 -101 93 -133 113 -148 91 -5
-9 25 -47 137 -174 40 -45 41 -48 22 -62 -42 -31 -124 -30 -207 3 -29 11 -36
19 -31 31 4 9 9 42 12 73 4 48 0 67 -22 112 -31 63 -90 113 -145 122 -70 11
-71 12 -71 57 0 55 -34 113 -88 152 -39 27 -51 30 -120 30 -75 0 -78 1 -107
34 -60 69 -179 92 -259 52 -38 -20 -38 -20 -60 0 -42 40 -76 51 -142 47 -44
-3 -72 -10 -92 -25 l-29 -21 -114 57 c-135 68 -326 133 -573 195 -98 25 -181
48 -184 50 -20 20 80 249 155 355 56 80 228 251 252 251 10 0 55 -14 102 -31z
m-316 -714 c223 -55 422 -122 536 -181 l86 -44 -5 -50 c-7 -71 5 -116 40 -156
40 -45 97 -74 147 -74 34 0 40 -4 49 -30 29 -82 124 -150 211 -150 40 0 49 -4
66 -30 41 -62 137 -106 205 -95 26 4 40 3 40 -4 0 -22 67 -85 115 -107 79 -37
162 -29 232 22 l31 24 54 -25 c106 -48 216 -42 282 15 27 24 39 28 67 24 76
-13 180 42 215 112 15 31 24 38 42 36 12 -2 47 4 77 13 74 21 139 83 156 147
l13 46 58 4 c70 5 131 43 166 103 18 32 22 51 19 95 -2 30 -7 62 -11 71 -6 14
9 23 76 49 148 57 379 131 552 175 l169 44 -6 -97 c-10 -153 -45 -267 -125
-403 -206 -352 -668 -630 -1237 -744 -222 -45 -287 -50 -590 -49 -247 0 -311
3 -430 22 -282 44 -528 119 -750 227 -463 226 -733 557 -761 934 -7 94 -3 121
18 121 7 0 94 -20 193 -45z m896 -221 c16 -15 31 -42 35 -60 l6 -32 38 38 c90
90 229 68 261 -41 13 -43 23 -47 50 -23 26 24 98 29 142 11 20 -9 46 -31 57
-49 21 -33 22 -45 8 -168 -2 -18 1 -24 12 -21 53 14 120 12 154 -4 105 -50
115 -204 17 -271 -45 -30 -120 -33 -171 -5 -37 20 -80 88 -80 128 0 28 -10 29
-52 3 -18 -11 -46 -20 -61 -20 -70 0 -137 56 -137 115 0 17 -3 34 -6 37 -3 3
-27 -3 -54 -15 -47 -20 -50 -20 -94 -3 -66 25 -99 72 -104 147 -2 32 -7 59
-11 59 -4 0 -15 -6 -26 -14 -38 -25 -74 -27 -119 -8 -45 20 -76 67 -76 115 0
31 38 88 70 105 39 20 107 9 141 -24z"/>
</g>
</svg>
